<?xml version="1.0" encoding="UTF-8"?>
<!DOCTYPE svg PUBLIC "-//W3C//DTD SVG 1.1//EN" "http://www.w3.org/Graphics/SVG/1.1/DTD/svg11.dtd">
<!-- Creator: CorelDRAW 2020 (64-Bit) -->
<svg xmlns="http://www.w3.org/2000/svg" xml:space="preserve" width="116.114mm" height="35.6546mm" version="1.1" style="shape-rendering:geometricPrecision; text-rendering:geometricPrecision; image-rendering:optimizeQuality; fill-rule:evenodd; clip-rule:evenodd"
viewBox="0 0 8559.23 2628.26"
 xmlns:xlink="http://www.w3.org/1999/xlink"
 xmlns:xodm="http://www.corel.com/coreldraw/odm/2003">
 <defs>
  <style type="text/css">
   <![CDATA[
    .fil0 {fill:#B72928}
    .fil1 {fill:#22325C;fill-rule:nonzero}
   ]]>
  </style>
 </defs>
 <g id="Layer_x0020_1">
  <metadata id="CorelCorpID_0Corel-Layer"/>
  <path class="fil0" d="M2383.26 0l0 1436.63c0,439.71 -241.38,825.77 -598.18,1032.26l0 -531.4c102.23,-129.08 163.44,-291.92 163.44,-468.38l0 -1469.1 434.75 0zm-1255.64 510.04c-119.72,252.52 -368.76,432.89 -655.56,455.34 -12.1,0.94 -21.94,1.28 -33.64,1.72 -1.23,0.04 -2.45,0.11 -3.69,0.13l0 -967.24 -434.74 0 0 1436.63c0,655.39 536.23,1191.63 1191.63,1191.63l0 0c120.57,0 237.11,-18.15 347.02,-51.85l-497.05 -365.47c-345.06,-70.11 -606.86,-376.87 -606.86,-741.83l0 -50.46c393.36,-1.05 746.82,359.57 767.48,749.57l451.54 359.01 0 -316.63c0,-331.96 -129.28,-644.05 -364.01,-878.78 -51.41,-51.43 -106.54,-97.77 -164.77,-138.81 58.23,-41.06 113.37,-87.41 164.77,-138.83 281.76,-281.75 364.69,-580.26 352.83,-969.73l-2.57 -84.45 -436.63 0 0 79.3c0,162.01 -3.07,277.43 -75.76,430.74z"/>
  <path class="fil1" d="M3542.17 502.44l45.75 0c42.35,0 72.85,-13.27 91.48,-39.81l277.84 -403.21c16.37,-21.47 34.17,-36.42 53.09,-44.62 18.91,-8.18 42.34,-12.14 70.58,-12.14l249.04 0 -365.94 498.93c-25.98,34.45 -53.93,59.3 -83.86,74.55 21.46,7.9 40.94,18.92 58.44,33.03 17.51,14.12 33.89,32.47 49.14,55.06l372.71 572.62 -255.82 0c-16.37,0 -30.21,-1.13 -41.78,-3.39 -11.58,-2.26 -21.75,-5.65 -30.22,-10.16 -8.47,-4.52 -15.81,-10.17 -22.03,-16.66 -6.21,-6.49 -12.13,-13.84 -17.79,-22.31l-279.53 -429.47c-10.17,-15.82 -22.87,-27.11 -38.4,-33.61 -15.53,-6.49 -36.71,-9.6 -63.25,-9.6l-69.47 0 0 525.19 -286.31 0 0 -1234.19 286.31 0 0 499.78zm1450.96 262.59l-114.35 -337.97c-8.47,-21.47 -17.51,-46.88 -27.1,-75.96 -9.6,-29.08 -19.2,-60.42 -28.8,-94.3 -8.48,34.45 -17.51,66.35 -27.1,95.71 -9.6,29.37 -18.63,54.78 -27.11,76.24l-113.51 336.28 337.98 0zm454.88 471.82l-221.94 0c-24.84,0 -44.89,-5.93 -60.14,-17.51 -15.25,-11.57 -26.82,-26.26 -34.73,-44.33l-72.84 -215.15 -469.28 0 -72.85 215.15c-6.21,15.81 -17.22,29.94 -33.32,42.64 -16.09,12.7 -36.14,19.2 -59.86,19.2l-223.63 0 477.75 -1234.19 293.08 0 477.76 1234.19zm972.72 -1234.19l-494.7 1234.19 -259.2 0 -494.7 -1234.19 230.41 0c24.85,0 44.89,5.65 60.14,17.23 15.24,11.57 26.82,26.54 34.72,44.61l238.89 660.72c11.29,28.8 22.31,60.14 33.03,94.3 10.73,34.17 20.89,70.02 30.5,107.3 7.9,-37.28 16.94,-73.13 26.82,-107.3 9.88,-34.17 20.33,-65.5 31.62,-94.3l237.18 -660.72c6.21,-15.81 17.51,-30.22 33.6,-42.92 16.09,-12.71 35.86,-18.92 59.58,-18.92l232.1 0zm273.52 220.24l0 288 387.96 0 0 211.77 -387.96 0 0 293.94 506.55 0 0 220.24 -794.55 0 0 -1234.19 794.55 0 0 220.24 -506.55 0zm972.37 360.01c38.97,0 72.28,-5.09 99.67,-14.96 27.38,-9.89 49.7,-23.43 67.21,-40.94 17.51,-17.51 30.22,-38.12 38.12,-61.56 7.9,-23.43 11.86,-48.56 11.86,-75.67 0,-54.22 -17.51,-96.57 -52.8,-127.06 -35.29,-30.5 -90.08,-45.74 -164.05,-45.74l-115.2 0 0 365.93 115.2 0zm608.2 653.94l-259.2 0c-48,0 -82.46,-18.07 -103.35,-54.21l-204.98 -358.32c-9.6,-15.24 -20.33,-26.54 -32.19,-33.6 -11.85,-7.05 -28.8,-10.45 -50.83,-10.45l-72.84 0 0 456.57 -286.31 0 0 -1234.19 401.51 0c89.22,0 165.47,9.04 228.43,27.39 62.97,18.35 114.35,44.05 154.17,76.8 39.81,32.74 68.61,71.44 86.68,116.05 18.07,44.61 27.1,93.17 27.1,145.7 0,40.09 -5.37,77.93 -16.09,113.51 -10.73,35.57 -26.54,68.33 -47.44,98.54 -20.9,30.22 -46.59,57.33 -77.36,81.04 -30.78,23.72 -66.36,43.2 -106.46,58.45 18.63,9.6 36.15,21.46 52.52,35.86 16.38,14.4 31.06,31.62 44.05,51.39l262.59 429.47zm280.31 0l-288.01 0 0 -1234.19 288.01 0 0 1234.19z"/>
  <path class="fil1" d="M3522.74 2041.42c160.74,0 268.2,-97.36 268.2,-284.73l0 -368.31 -72.56 0 0 373.83c0,140.52 -75.32,212.16 -193.81,212.16 -123.07,0 -196.55,-78.07 -196.55,-216.76l0 -369.23 -72.56 0 0 373.83c0,181.85 108.38,279.22 267.28,279.22zm400.31 -10.1l70.72 0 0 -527.21 415.16 527.21 57.87 0 0 -642.94 -70.73 0 0 515.27 -405.05 -515.27 -67.96 0 0 642.94zm692.38 0l72.56 0 0 -642.94 -72.56 0 0 642.94zm442.55 4.59l64.29 0 276.47 -647.53 -78.07 0 -229.62 553.85 -228.71 -553.85 -80.82 0 276.47 647.53zm427.86 -4.59l469.35 0 0 -66.13 -396.79 0 0 -225.04 350.87 0 0 -66.13 -350.87 0 0 -219.52 392.2 0 0 -66.13 -464.75 0 0 642.94zm575.73 0l72.56 0 0 -249.83 183.7 0 186.45 249.83 89.1 0 -197.48 -262.7c101.03,-18.37 174.51,-80.82 174.51,-187.37l0 -1.84c0,-50.52 -18.37,-95.53 -49.6,-126.75 -40.42,-40.42 -103.79,-64.29 -182.78,-64.29l-276.47 0 0 642.94zm72.56 -315.05l0 -260.85 198.39 0c103.78,0 164.41,47.76 164.41,126.74l0 1.84c0,82.67 -68.89,132.27 -165.33,132.27l-197.47 0zm772.29 324.23c127.67,0 219.51,-71.64 219.51,-181.86l0 -1.84c0,-98.28 -66.13,-150.64 -209.42,-181.87 -141.44,-30.3 -174.51,-64.29 -174.51,-124.92l0 -1.84c0,-57.87 53.27,-103.78 136.86,-103.78 66.13,0 125.83,21.12 185.53,69.8l42.25 -56.03c-65.22,-52.35 -132.27,-78.98 -225.95,-78.98 -122.16,0 -211.25,74.4 -211.25,175.43l0 1.84c0,105.63 67.96,153.38 215.84,185.53 135.02,28.48 167.16,62.46 167.16,122.16l0 1.84c0,63.38 -56.94,109.3 -143.29,109.3 -89.08,0 -153.38,-30.31 -220.44,-90.93l-45 53.27c77.15,68.89 160.73,102.88 262.69,102.88zm334.17 -9.18l72.56 0 0 -642.94 -72.56 0 0 642.94zm391.12 0l73.48 0 0 -575.89 215.84 0 0 -67.05 -505.17 0 0 67.05 215.85 0 0 575.89zm586.75 0l73.49 0 0 -255.35 267.27 -387.6 -84.5 0 -218.6 321.47 -216.76 -321.47 -88.18 0 267.28 388.52 0 254.43z"/>
  <path class="fil1" d="M3345.72 2522.03c44.4,0 76.33,-24.92 76.33,-63.26l0 -0.64c0,-34.18 -22.99,-52.4 -72.82,-63.26 -49.19,-10.54 -60.69,-22.36 -60.69,-43.45l0 -0.63c0,-20.13 18.52,-36.11 47.6,-36.11 22.99,0 43.76,7.35 64.51,24.28l14.69 -19.49c-22.68,-18.21 -46,-27.47 -78.57,-27.47 -42.48,0 -73.46,25.88 -73.46,61.02l0 0.63c0,36.75 23.63,53.36 75.05,64.54 46.96,9.91 58.14,21.73 58.14,42.5l0 0.64c0,22.05 -19.81,38.01 -49.83,38.01 -30.98,0 -53.34,-10.54 -76.66,-31.62l-15.65 18.53c26.83,23.96 55.89,35.78 91.35,35.78zm290.99 -3.2l25.23 0 0 -100.64 129.04 0 0 100.64 25.23 0 0 -223.64 -25.23 0 0 99.37 -129.04 0 0 -99.37 -25.23 0 0 223.64zm386.82 0l25.87 0 26.52 -59.1 121.69 0 26.19 59.1 27.14 0 -101.89 -225.23 -23.63 0 -101.89 225.23zm62.28 -81.79l51.11 -114.06 50.79 114.06 -101.9 0zm372.44 81.79l25.23 0 0 -78.91 54.31 0c47.59,0 87.83,-24.92 87.83,-73.16l0 -0.64c0,-44.09 -33.22,-70.93 -83.68,-70.93l-83.69 0 0 223.64zm25.23 -101.92l0 -98.4 56.53 0c36.1,0 60.06,16.62 60.06,48.56l0 0.63c0,29.4 -24.28,49.2 -61.32,49.2l-55.26 0zm353.59 101.92l25.24 0 0 -223.64 -25.24 0 0 223.64zm253.95 0l24.6 0 0 -183.39 144.36 183.39 20.12 0 0 -223.64 -24.59 0 0 179.24 -140.85 -179.24 -23.64 0 0 223.64zm519.37 3.83c37.68,0 68.98,-15.65 89.75,-34.18l0 -89.14 -92.31 0 0 22.68 68.03 0 0 55.59c-15.33,12.47 -38.97,22.36 -64.51,22.36 -54.31,0 -88.48,-39.61 -88.48,-92.97l0 -0.64c0,-49.84 35.46,-91.69 84.96,-91.69 31.62,0 50.78,10.54 68.03,25.56l16.29 -19.17c-22.36,-18.85 -45.68,-29.71 -83.36,-29.71 -67.07,0 -112.11,54.31 -112.11,115.66l0 0.63c0,63.9 43.44,115.02 113.71,115.02zm560.56 -3.83l25.55 0 0 -200.32 75.07 0 0 -23.32 -175.67 0 0 23.32 75.05 0 0 200.32zm311.13 0l25.23 0 0 -100.64 129.03 0 0 100.64 25.24 0 0 -223.64 -25.24 0 0 99.37 -129.03 0 0 -99.37 -25.23 0 0 223.64zm405.97 0l163.21 0 0 -23 -137.98 0 0 -78.28 122.01 0 0 -23 -122.01 0 0 -76.36 136.39 0 0 -23.01 -161.62 0 0 223.64zm568.88 0l24.6 0 0 -183.39 144.37 183.39 20.12 0 0 -223.64 -24.59 0 0 179.24 -140.85 -179.24 -23.64 0 0 223.64zm415.56 0l163.21 0 0 -23 -137.97 0 0 -78.28 122 0 0 -23 -122 0 0 -76.36 136.38 0 0 -23.01 -161.62 0 0 223.64zm439.84 1.6l21.08 0 61.64 -181.47 61.32 181.47 21.41 0 79.85 -225.24 -26.51 0 -63.88 186.26 -61.32 -186.9 -20.77 0 -61.32 186.9 -63.87 -186.26 -27.47 0 79.85 225.24z"/>
  <rect class="fil1" x="3255.82" y="2187.99" width="5298.8" height="25.81"/>
  <rect class="fil1" x="3255.82" y="2598.95" width="5298.8" height="25.81"/>
 </g>
</svg>
